<?xml version="1.0" encoding="UTF-8"?>
<svg width="233px" height="55px" viewBox="0 0 233 55" version="1.1" xmlns="http://www.w3.org/2000/svg" xmlns:xlink="http://www.w3.org/1999/xlink">
    <!-- Generator: Sketch 58 (84663) - https://sketch.com -->
    <title>Logos</title>
    <desc>Created with Sketch.</desc>
    <defs>
        <polygon id="path-1" points="0 53.9048217 79.9548074 53.9048217 79.9548074 0 0 0"></polygon>
    </defs>
    <g id="Global" stroke="none" stroke-width="1" fill="none" fill-rule="evenodd">
        <g id="global/footer/desktop" transform="translate(-1432.000000, -347.000000)">
            <g id="components/footer/desktop" transform="translate(0.000000, 55.000000)">
                <g id="Logos" transform="translate(1432.000000, 292.000000)">
                    <g id="assets/logos/adidas/black" transform="translate(124.000000, 0.000000)" fill="#000000">
                        <g id="Group-2">
                            <path d="M28.324,7.81 L28.324,6.93 L20.514,6.93 L20.514,9.9 L24.518,9.9 C23.968,11.352 22.626,12.518 20.602,12.518 C17.94,12.518 16.048,10.56 16.048,7.92 C16.048,5.126 18.072,3.19 20.69,3.19 C22.274,3.19 23.528,3.96 24.54,5.236 L27.048,3.102 C25.684,1.144 23.506,0 20.69,0 C15.806,0 12.572,3.542 12.572,7.832 C12.572,12.188 15.916,15.686 20.69,15.686 C25.2,15.686 28.324,12.32 28.324,7.81 Z M29.776,15.378 L40.182,15.378 L40.182,12.254 L33.186,12.254 L33.186,0.308 L29.776,0.308 L29.776,15.378 Z M49.378,15.686 C53.888,15.686 57.364,12.32 57.364,7.832 C57.364,3.366 53.888,0 49.378,0 C44.978,0 41.392,3.366 41.392,7.854 C41.392,12.32 44.978,15.686 49.378,15.686 Z M49.378,12.518 C46.826,12.518 44.868,10.494 44.868,7.854 C44.868,5.214 46.826,3.168 49.378,3.168 C51.93,3.168 53.888,5.214 53.888,7.832 C53.888,10.494 51.93,12.518 49.378,12.518 Z M58.86,15.378 L65.636,15.378 C69.2,15.378 70.938,13.53 70.938,11.066 C70.938,9.306 69.926,8.03 68.034,7.458 C69.288,6.82 69.926,5.742 69.926,4.4 C69.926,2.178 68.43,0.308 65.064,0.308 L58.86,0.308 L58.86,15.378 Z M64.822,3.234 C65.988,3.234 66.582,3.872 66.582,4.752 C66.582,5.654 65.988,6.314 64.822,6.314 L62.27,6.314 L62.27,3.234 L64.822,3.234 Z M65.438,9.196 C66.78,9.196 67.528,9.878 67.528,10.868 C67.528,11.792 66.78,12.452 65.46,12.452 L62.27,12.452 L62.27,9.196 L65.438,9.196 Z M80.794,9.768 L76.9,9.768 L78.836,3.894 L80.794,9.768 Z M82.664,15.378 L86.338,15.378 L81.036,0.308 L76.856,0.308 L71.532,15.378 L75.03,15.378 L75.888,12.782 L81.806,12.782 L82.664,15.378 Z M87.394,15.378 L87.394,0.308 L90.804,0.308 L90.804,12.254 L97.8,12.254 L97.8,15.378 L87.394,15.378 Z" id="GLOBAL" fill-rule="nonzero"></path>
                            <path d="M18.424,35.686 C22.384,35.686 24.562,33.684 24.562,30.912 C24.562,27.7455714 22.0011327,26.9882551 19.6624781,26.4558615 L18.5379767,26.1991596 C17.0646864,25.8461746 15.894,25.4382308 15.894,24.29 C15.894,23.3 16.796,22.75 18.16,22.75 C20.03,22.75 20.69,23.718 20.756,24.95 L24.21,24.95 C23.99,21.98 21.944,19.956 18.248,19.956 C14.64,19.956 12.572,21.936 12.572,24.598 C12.572,28.184 15.52,28.91 17.918,29.482 L18.7270086,29.6602359 C20.0899456,29.9765248 21.13,30.35056 21.13,31.33 C21.13,32.276 20.25,32.958 18.512,32.958 C16.466,32.958 15.806,31.814 15.74,30.67 L12.308,30.67 C12.506,33.794 14.618,35.686 18.424,35.686 Z M34.396,29.768 L30.502,29.768 L32.438,23.894 L34.396,29.768 Z M36.266,35.378 L39.94,35.378 L34.638,20.308 L30.458,20.308 L25.134,35.378 L28.632,35.378 L29.49,32.782 L35.408,32.782 L36.266,35.378 Z M40.996,35.378 L51.402,35.378 L51.402,32.254 L44.406,32.254 L44.406,20.308 L40.996,20.308 L40.996,35.378 Z M52.964,35.378 L64.008,35.378 L64.008,32.298 L56.374,32.298 L56.374,29.218 L63.414,29.218 L63.414,26.226 L56.374,26.226 L56.374,23.388 L63.986,23.388 L63.986,20.308 L52.964,20.308 L52.964,35.378 Z M71.026,35.686 C67.22,35.686 65.108,33.794 64.91,30.67 L68.342,30.67 C68.408,31.814 69.068,32.958 71.114,32.958 C72.852,32.958 73.732,32.276 73.732,31.33 C73.732,30.164 72.258,29.856 70.52,29.482 L69.8229129,29.3120434 C67.5872154,28.7457732 65.174,27.8424762 65.174,24.598 C65.174,21.936 67.242,19.956 70.85,19.956 C74.546,19.956 76.592,21.98 76.812,24.95 L73.358,24.95 C73.292,23.718 72.632,22.75 70.762,22.75 C69.398,22.75 68.496,23.3 68.496,24.29 C68.496,25.4382308 69.6666864,25.8461746 71.1399767,26.1991596 L72.625649,26.5398373 C74.859051,27.0722642 77.164,27.9079524 77.164,30.912 C77.164,33.684 74.986,35.686 71.026,35.686 Z" id="SALES" fill-rule="nonzero"></path>
                            <path d="M22.076,49.296 L15.41,49.296 L18.754,40.826 L22.076,49.296 Z M24.078,54.378 L25.332,54.378 L19.348,39.308 L18.182,39.308 L12.22,54.378 L13.408,54.378 L14.97,50.396 L22.516,50.396 L24.078,54.378 Z M34,40.254 C36.574,40.254 38.422,41.464 39.61,43.466 L40.556,42.85 C39.236,40.584 37.058,39.132 34,39.132 C29.71,39.132 26.212,42.366 26.212,46.832 C26.212,51.298 29.71,54.554 34,54.554 C37.058,54.554 39.17,53.124 40.512,50.858 L39.61,50.264 C38.422,52.244 36.64,53.454 34,53.454 C30.282,53.454 27.378,50.616 27.378,46.832 C27.378,43.048 30.282,40.254 34,40.254 Z M51.204,49.296 L44.538,49.296 L47.882,40.826 L51.204,49.296 Z M53.206,54.378 L54.46,54.378 L48.476,39.308 L47.31,39.308 L41.348,54.378 L42.536,54.378 L44.098,50.396 L51.644,50.396 L53.206,54.378 Z M55.78,54.378 L60.422,54.378 C64.624,54.378 68.056,51.188 68.056,46.832 C68.056,42.476 64.624,39.308 60.422,39.308 L55.78,39.308 L55.78,54.378 Z M60.378,40.386 C64.03,40.386 66.89,43.114 66.89,46.832 C66.89,50.55 64.03,53.3 60.378,53.3 L56.946,53.3 L56.946,40.386 L60.378,40.386 Z M69.816,54.378 L79.298,54.378 L79.298,53.3 L70.982,53.3 L70.982,47.294 L78.308,47.294 L78.308,46.216 L70.982,46.216 L70.982,40.386 L78.858,40.386 L78.858,39.308 L69.816,39.308 L69.816,54.378 Z M87.504,54.378 L88.164,54.378 L93.796,41.596 L93.796,54.378 L94.918,54.378 L94.918,39.308 L93.598,39.308 L87.856,52.596 L82.092,39.308 L80.772,39.308 L80.772,54.378 L81.872,54.378 L81.872,41.64 L87.504,54.378 Z M103.014,54.378 L101.848,54.378 L101.848,47.668 L96.458,39.308 L97.844,39.308 L102.442,46.612 L107.04,39.308 L108.404,39.308 L103.014,47.624 L103.014,54.378 Z" id="ACADEMY" fill-rule="nonzero"></path>
                            <rect id="Rectangle" x="0" y="0.378" width="3" height="54"></rect>
                        </g>
                    </g>
                    <g id="assets/logos/adidas/black" transform="translate(0.000000, 1.000000)">
                        <g id="Group-13">
                            <path d="M73.8505335,53.9047989 C70.0699914,53.9047989 67.8287361,51.9682511 67.6912183,49.232388 L71.2394066,49.232388 C71.2394066,50.0818031 71.7816034,51.3461683 74.0678231,51.3836006 C75.5945563,51.3836006 76.321632,50.4841997 76.321632,49.8120171 C76.2242853,48.7400628 74.8774094,48.6451127 73.4382083,48.4176662 C72.0065392,48.1953552 70.7896491,47.9254551 69.8951555,47.4782083 C68.7707047,46.8934437 68.0010613,45.6318174 68.0010613,44.2000342 C68.0010613,41.7775521 70.1174665,39.8386077 73.6232011,39.8386077 C77.0362682,39.8386077 79.1901056,41.6401484 79.4150414,44.2874522 L76.0018602,44.2874522 C75.9543852,43.5703053 75.8218887,42.4497347 73.8005478,42.4497347 C72.4511612,42.4497347 71.5592924,42.7195207 71.4693638,43.6627447 C71.4693638,45.0520742 74.2951555,44.9645421 76.4940713,45.5418887 C78.6054551,46.0790642 79.9547275,47.3907903 79.9547275,49.232388 C79.9547275,52.59798 77.213729,53.9047989 73.8505335,53.9047989" id="Fill-1" fill="#1D1D1B"></path>
                            <polygon id="Fill-3" fill="#1D1D1B" points="8.62412553 31.3556519 20.4365078 24.5680913 26.679475 35.351087 10.9154807 35.351087"></polygon>
                            <mask id="mask-2" fill="white">
                                <use xlink:href="#path-1"></use>
                            </mask>
                            <g id="Clip-6"></g>
                            <polygon id="Fill-5" fill="#1D1D1B" mask="url(#mask-2)" points="31.7094437 53.5849358 35.0813124 53.5849358 35.0813124 39.9734094 31.7094437 39.9734094"></polygon>
                            <path d="M7.0500428,53.9047989 C3.18835949,53.9047989 0,50.7066248 0,46.8459686 C0,42.9394351 3.18835949,39.8386077 7.0500428,39.8386077 C8.53295292,39.8386077 9.92718973,40.2434009 11.0940942,41.0529872 L11.0940942,39.9735007 L14.4184879,39.9735007 L14.4184879,53.584913 L11.0940942,53.584913 L11.0940942,52.6855121 C9.96964337,53.4476234 8.57917261,53.9047989 7.0500428,53.9047989 M3.23446505,46.8459686 C3.23446505,48.9623738 5.02733238,50.7066248 7.14248217,50.7066248 C9.29757489,50.7066248 11.0940942,48.9623738 11.0940942,46.8459686 C11.0940942,44.7323024 9.29757489,42.9394351 7.14248217,42.9394351 C5.02733238,42.9394351 3.23446505,44.7323024 3.23446505,46.8459686" id="Fill-7" fill="#1D1D1B" mask="url(#mask-2)"></path>
                            <polygon id="Fill-8" fill="#1D1D1B" mask="url(#mask-2)" points="52.4169815 35.3510528 35.9782939 6.82631669 47.7944422 -4.56490728e-05 68.2335863 35.3510528"></polygon>
                            <path d="M22.6828987,53.9047989 C18.7737404,53.9047989 15.5880057,50.7066248 15.5880057,46.8459686 C15.5880057,42.9394351 18.7737404,39.8386077 22.6828987,39.8386077 C24.1632981,39.8386077 25.5151954,40.2434009 26.679475,41.0529872 L26.679475,35.3510756 L30.0476919,35.3510756 L30.0476919,53.584913 L26.679475,53.584913 L26.679475,52.6855121 C25.5151954,53.4476234 24.1632981,53.9047989 22.6828987,53.9047989 M18.8174494,46.8459686 C18.8174494,48.9623738 20.6127133,50.7066248 22.7728274,50.7066248 C24.8829558,50.7066248 26.679475,48.9623738 26.679475,46.8459686 C26.679475,44.7323024 24.8829558,42.9394351 22.7728274,42.9394351 C20.6127133,42.9394351 18.8174494,44.7323024 18.8174494,46.8459686" id="Fill-9" fill="#1D1D1B" mask="url(#mask-2)"></path>
                            <polygon id="Fill-10" fill="#1D1D1B" mask="url(#mask-2)" points="22.4105221 19.2233723 34.2730043 12.4432297 47.522077 35.3510756 35.0812211 35.3510756 35.0812211 38.7241997 31.7093524 38.7241997 31.7093524 35.3510756"></polygon>
                            <path d="M59.0233837,53.9047989 C55.1604451,53.9047989 51.9721997,50.7066248 51.9721997,46.8459686 C51.9721997,42.9394351 55.1604451,39.8386077 59.0233837,39.8386077 C60.5050385,39.8386077 61.894368,40.2434009 63.016194,41.0529872 L63.016194,39.9735007 L66.3895464,39.9735007 L66.3895464,53.584913 L63.016194,53.584913 L63.016194,52.6855121 C61.894368,53.4476234 60.550117,53.9047989 59.0233837,53.9047989 M55.2454665,46.8459686 C55.2454665,48.9623738 57.0470071,50.7066248 59.1609016,50.7066248 C61.2697746,50.7066248 63.016194,48.9623738 63.016194,46.8459686 C63.016194,44.7323024 61.2697746,42.9394351 59.1609016,42.9394351 C57.0470071,42.9394351 55.2454665,44.7323024 55.2454665,46.8459686" id="Fill-11" fill="#1D1D1B" mask="url(#mask-2)"></path>
                            <path d="M47.522077,35.3510528 L50.8478402,35.3510528 L50.8478402,53.5848902 L47.522077,53.5848902 L47.522077,52.6856034 C46.4026476,53.4476006 45.0109215,53.904776 43.479281,53.904776 C39.6149729,53.904776 36.4268417,50.706602 36.4268417,46.8460599 C36.4268417,42.9394123 39.6149729,39.8385849 43.479281,39.8385849 C45.0109215,39.8385849 46.3577974,40.243378 47.522077,41.0529643 L47.522077,35.3510528 Z M39.706271,46.8460599 C39.706271,48.962465 41.5027903,50.706602 43.5717204,50.706602 C45.7255578,50.706602 47.522077,48.962465 47.522077,46.8460599 C47.522077,44.7322796 45.7255578,42.9394123 43.5717204,42.9394123 C41.5027903,42.9394123 39.706271,44.7322796 39.706271,46.8460599 L39.706271,46.8460599 Z" id="Fill-12" fill="#1D1D1B" mask="url(#mask-2)"></path>
                        </g>
                    </g>
                </g>
            </g>
        </g>
    </g>
</svg>